<?xml version="1.0" encoding="UTF-8"?>
<svg width="143px" height="25px" viewBox="0 0 143 25" version="1.1" xmlns="http://www.w3.org/2000/svg" xmlns:xlink="http://www.w3.org/1999/xlink">
    <title>Combined Shape</title>
    <g id="Page-1" stroke="none" stroke-width="1" fill="none" fill-rule="evenodd">
        <path d="M53.514563,7.9699707 L55.6947388,7.9699707 L55.6947388,24 L53.721106,24 L43.0038208,11.6647949 L43.0038208,24 L40.8465943,24 L40.8465943,7.9699707 L42.705481,7.9699707 L53.514563,20.4084473 L53.514563,7.9699707 Z M59.5239755,7.9699707 L68.6118661,7.9699707 L68.6118661,10.0124512 L61.8188974,10.0124512 L61.8188974,14.9006348 L68.382374,14.9006348 L68.382374,16.9545898 L61.8188974,16.9545898 L61.8188974,21.9345703 L68.8298837,21.9345703 L68.8298837,23.9770508 L59.5239755,23.9770508 L59.5239755,7.9699707 Z M71.6952533,23.9770508 L71.6952533,7.9699707 L77.0997943,7.9699707 C79.27997,7.9699707 81.0049863,8.29699707 82.2748431,8.9510498 C83.5446999,9.60510254 84.5544655,10.5670573 85.30414,11.8369141 C86.0538144,13.1067708 86.4286517,14.4913737 86.4286517,15.9907227 C86.4286517,17.0616862 86.2221087,18.0867513 85.8090228,19.065918 C85.3959368,20.0450846 84.8069069,20.9056803 84.0419329,21.6477051 C83.2616595,22.412679 82.3551654,22.9902344 81.3224505,23.3803711 C80.7181211,23.617513 80.163515,23.7762451 79.6586322,23.8565674 C79.1537493,23.9368896 78.1898822,23.9770508 76.7670306,23.9770508 L71.6952533,23.9770508 Z M76.8588275,10.0124512 L73.9901751,10.0124512 L73.9901751,21.9345703 L76.9276751,21.9345703 C78.0751361,21.9345703 78.9663307,21.8561605 79.6012591,21.6993408 C80.2361875,21.5425212 80.765932,21.3436279 81.1904925,21.1026611 C81.6150531,20.8616943 82.0032773,20.5652669 82.3551654,20.2133789 C83.4873268,19.065918 84.0534075,17.6162923 84.0534075,15.864502 C84.0534075,14.1433105 83.4720273,12.7395833 82.3092669,11.6533203 C81.8808815,11.2478841 81.3893857,10.9151204 80.8347796,10.6550293 C80.2801735,10.3949382 79.7542539,10.222819 79.2570208,10.1386719 C78.7597878,10.0545247 77.96039,10.0124512 76.8588275,10.0124512 Z M97.5672146,7.74047852 C100.04573,7.74047852 102.109247,8.52457682 103.757766,10.0927734 C105.406285,11.6609701 106.230545,13.6269531 106.230545,15.9907227 C106.230545,18.3544922 105.398635,20.3109131 103.734817,21.8599854 C102.070999,23.4090576 99.9730577,24.1835938 97.4409939,24.1835938 C95.0236762,24.1835938 93.0098822,23.4090576 91.399612,21.8599854 C89.7893419,20.3109131 88.9842068,18.3697917 88.9842068,16.0366211 C88.9842068,13.6422526 89.7950792,11.6609701 91.4168239,10.0927734 C93.0385687,8.52457682 95.0886989,7.74047852 97.5672146,7.74047852 Z M97.6590114,9.9206543 C95.8230739,9.9206543 94.3141628,10.4943848 93.132278,11.6418457 C91.9503933,12.7893066 91.3594509,14.2542318 91.3594509,16.0366211 C91.3594509,17.7654622 91.9523057,19.2036133 93.1380154,20.3510742 C94.323725,21.4985352 95.8077745,22.0722656 97.5901638,22.0722656 C99.3802029,22.0722656 100.873815,21.4870605 102.070999,20.3166504 C103.268183,19.1462402 103.866775,17.6889648 103.866775,15.9448242 C103.866775,14.246582 103.268183,12.8179932 102.070999,11.6590576 C100.873815,10.5001221 99.4031521,9.9206543 97.6590114,9.9206543 Z M122.199918,7.9699707 L124.334195,7.9699707 L124.334195,24 L122.027799,24 L122.027799,11.5270996 L117.093717,17.7233887 L116.669156,17.7233887 L111.689176,11.5270996 L111.689176,24 L109.394254,24 L109.394254,7.9699707 L111.551481,7.9699707 L116.887174,14.5563965 L122.199918,7.9699707 Z M133.304057,7.87817383 L134.921977,7.87817383 L142.093608,24 L139.741313,24 L137.607036,19.2495117 L130.791118,19.2495117 L128.771586,24 L126.419292,24 L133.304057,7.87817383 Z M136.666118,17.2070312 L134.084331,11.4008789 L131.686137,17.2070312 L136.666118,17.2070312 Z M8.12109437,0.715888308 L8.76293407,1.3412856 L15.616,8.018 L28.4353483,8.01896084 L28.4353483,24.0729927 L14.3224807,24.0729927 L14.322,9.326 L8.121,3.283 L1.6418397,9.59738327 L0.358160299,8.27995447 L7.47925467,1.3412856 L8.12109437,0.715888308 Z M26.595,9.858 L16.161,9.858 L16.161,22.233 L26.595,22.233 L26.595,9.858 Z M23.6081316,14.8759124 C24.3698662,14.8759124 24.987374,15.4935634 24.987374,16.2554745 C24.987374,17.0173855 24.3698662,17.6350365 23.6081316,17.6350365 C22.846397,17.6350365 22.2288891,17.0173855 22.2288891,16.2554745 C22.2288891,15.4935634 22.846397,14.8759124 23.6081316,14.8759124 Z" id="Combined-Shape" fill="#FFFFFF" fill-rule="nonzero"></path>
    </g>
</svg>